<?xml version="1.0" standalone="no"?>
<!DOCTYPE svg PUBLIC "-//W3C//DTD SVG 20010904//EN"
 "http://www.w3.org/TR/2001/REC-SVG-20010904/DTD/svg10.dtd">
<svg version="1.0" xmlns="http://www.w3.org/2000/svg"
 width="260.000000pt" height="260.000000pt" viewBox="0 0 260.000000 260.000000"
 preserveAspectRatio="xMidYMid meet">
<metadata>
Created by potrace 1.11, written by Peter Selinger 2001-2013
</metadata>
<g transform="translate(0.000000,260.000000) scale(0.100000,-0.100000)"
fill="#000000" stroke="none">
<path d="M0 1300 l0 -1300 1300 0 1300 0 0 1300 0 1300 -1300 0 -1300 0 0
-1300z m1508 755 c85 -14 260 -64 290 -83 9 -6 12 -40 10 -132 -3 -104 -6
-125 -21 -134 -13 -8 -23 -7 -45 6 -59 38 -190 97 -252 114 -45 12 -102 18
-185 18 -104 0 -127 -2 -170 -22 -98 -45 -143 -113 -130 -198 14 -94 74 -127
307 -170 261 -47 365 -83 450 -154 94 -78 135 -263 88 -399 -40 -120 -121
-207 -245 -266 -109 -51 -160 -60 -345 -60 -147 1 -177 4 -272 28 -59 15 -137
40 -175 56 l-68 28 -3 127 c-3 132 3 156 37 156 10 0 33 -12 52 -26 51 -40
205 -110 284 -130 85 -22 248 -25 322 -6 143 37 213 147 167 262 -28 69 -90
95 -325 135 -272 48 -389 100 -462 208 -108 159 -84 387 54 511 63 57 173 112
259 130 87 19 264 19 378 1z"/>
</g>
</svg>
